<?xml version="1.0" encoding="UTF-8" standalone="no"?>
<svg
   xmlns:dc="http://purl.org/dc/elements/1.1/"
   xmlns:cc="http://creativecommons.org/ns#"
   xmlns:rdf="http://www.w3.org/1999/02/22-rdf-syntax-ns#"
   xmlns:svg="http://www.w3.org/2000/svg"
   xmlns="http://www.w3.org/2000/svg"
   xmlns:sodipodi="http://sodipodi.sourceforge.net/DTD/sodipodi-0.dtd"
   xmlns:inkscape="http://www.inkscape.org/namespaces/inkscape"
   width="270"
   height="180"
   viewBox="0 0 270 180.00001"
   version="1.1"
   id="svg8"
   inkscape:version="1.0.2 (1.0.2+r75+1)"
   sodipodi:docname="eu_flag.svg">
  <defs
     id="defs2" />
  <sodipodi:namedview
     id="base"
     pagecolor="#ffffff"
     bordercolor="#666666"
     borderopacity="1.0"
     inkscape:pageopacity="0.0"
     inkscape:pageshadow="2"
     inkscape:zoom="4.55"
     inkscape:cx="87.197802"
     inkscape:cy="90"
     inkscape:document-units="px"
     inkscape:current-layer="layer1"
     inkscape:document-rotation="0"
     showgrid="true"
     units="px"
     showguides="true"
     inkscape:guide-bbox="true"
     inkscape:window-width="1920"
     inkscape:window-height="1015"
     inkscape:window-x="0"
     inkscape:window-y="0"
     inkscape:window-maximized="1">
    <inkscape:grid
       type="xygrid"
       id="grid10"
       spacingx="10"
       spacingy="10" />
    <sodipodi:guide
       position="135,90.000003"
       orientation="-1,0"
       id="guide837"
       inkscape:label=""
       inkscape:locked="true"
       inkscape:color="rgb(0,0,255)" />
    <sodipodi:guide
       position="135,90.000003"
       orientation="0,1"
       id="guide839"
       inkscape:label=""
       inkscape:locked="true"
       inkscape:color="rgb(0,0,255)" />
  </sodipodi:namedview>
  <metadata
     id="metadata5">
    <rdf:RDF>
      <cc:Work
         rdf:about="">
        <dc:format>image/svg+xml</dc:format>
        <dc:type
           rdf:resource="http://purl.org/dc/dcmitype/StillImage" />
        <dc:title></dc:title>
      </cc:Work>
    </rdf:RDF>
  </metadata>
  <g
     inkscape:label="Layer 1"
     inkscape:groupmode="layer"
     id="layer1">
    <rect
       style="fill:#003399;fill-opacity:1"
       id="rect12"
       width="270"
       height="180"
       x="-3.7499999e-06"
       y="0"
       inkscape:export-xdpi="96"
       inkscape:export-ydpi="96" />
    <path
       sodipodi:type="star"
       style="fill:#ffff00;fill-opacity:1"
       id="use847"
       sodipodi:sides="5"
       sodipodi:cx="135"
       sodipodi:cy="150"
       sodipodi:r1="10"
       sodipodi:r2="3.8199999"
       sodipodi:arg1="-1.5707963"
       sodipodi:arg2="-0.9424778"
       inkscape:flatsided="false"
       inkscape:rounded="0"
       inkscape:randomized="0"
       d="m 135,140 2.24534,6.90956 7.26523,2.7e-4 -5.87753,4.27061 2.24481,6.90973 L 135,153.82 l -5.87785,4.27017 2.24481,-6.90973 -5.87753,-4.27061 7.26523,-2.7e-4 z"
       inkscape:transform-center-y="-0.95491508" />
    <path
       sodipodi:type="star"
       style="fill:#ffff00;fill-opacity:1"
       id="use849"
       sodipodi:sides="5"
       sodipodi:cx="135"
       sodipodi:cy="30"
       sodipodi:r1="10"
       sodipodi:r2="3.8199999"
       sodipodi:arg1="-1.5707963"
       sodipodi:arg2="-0.9424778"
       inkscape:flatsided="false"
       inkscape:rounded="0"
       inkscape:randomized="0"
       d="m 135,20 2.24534,6.909555 7.26523,2.75e-4 -5.87753,4.270615 2.24481,6.909725 L 135,33.82 l -5.87785,4.27017 2.24481,-6.909725 -5.87753,-4.270615 7.26523,-2.75e-4 z"
       inkscape:transform-center-y="-0.95491508" />
    <path
       sodipodi:type="star"
       style="fill:#ffff00;fill-opacity:1"
       id="use851"
       sodipodi:sides="5"
       sodipodi:cx="75"
       sodipodi:cy="90"
       sodipodi:r1="10"
       sodipodi:r2="3.8199999"
       sodipodi:arg1="-1.5707963"
       sodipodi:arg2="-0.9424778"
       inkscape:flatsided="false"
       inkscape:rounded="0"
       inkscape:randomized="0"
       d="m 75,80 2.24534,6.909555 7.265225,2.75e-4 -5.877529,4.270615 2.244816,6.909725 L 75,93.82 l -5.877853,4.27017 2.244817,-6.909725 -5.877529,-4.270615 7.265225,-2.75e-4 z"
       inkscape:transform-center-y="-0.95491508" />
    <path
       sodipodi:type="star"
       style="fill:#ffff00;fill-opacity:1"
       id="use853"
       sodipodi:sides="5"
       sodipodi:cx="195"
       sodipodi:cy="90"
       sodipodi:r1="10"
       sodipodi:r2="3.8199999"
       sodipodi:arg1="-1.5707963"
       sodipodi:arg2="-0.9424778"
       inkscape:flatsided="false"
       inkscape:rounded="0"
       inkscape:randomized="0"
       d="m 195,80 2.24534,6.909555 7.26523,2.75e-4 -5.87753,4.270615 2.24481,6.909725 L 195,93.82 l -5.87785,4.27017 2.24481,-6.909725 -5.87753,-4.270615 7.26523,-2.75e-4 z"
       inkscape:transform-center-y="-0.95491508" />
    <path
       sodipodi:type="star"
       style="fill:#ffff00;fill-opacity:1"
       id="use855"
       sodipodi:sides="5"
       sodipodi:cx="187"
       sodipodi:cy="120"
       sodipodi:r1="10"
       sodipodi:r2="3.8199999"
       sodipodi:arg1="-1.5707963"
       sodipodi:arg2="-0.9424778"
       inkscape:flatsided="false"
       inkscape:rounded="0"
       inkscape:randomized="0"
       d="m 187,110 2.24534,6.90956 7.26523,2.7e-4 -5.87753,4.27061 2.24481,6.90973 L 187,123.82 l -5.87785,4.27017 2.24481,-6.90973 -5.87753,-4.27061 7.26523,-2.7e-4 z"
       inkscape:transform-center-y="-0.95491508" />
    <path
       sodipodi:type="star"
       style="fill:#ffff00;fill-opacity:1"
       id="use857"
       sodipodi:sides="5"
       sodipodi:cx="165"
       sodipodi:cy="142"
       sodipodi:r1="10"
       sodipodi:r2="3.8199999"
       sodipodi:arg1="-1.5707963"
       sodipodi:arg2="-0.9424778"
       inkscape:flatsided="false"
       inkscape:rounded="0"
       inkscape:randomized="0"
       d="m 165,132 2.24534,6.90956 7.26523,2.7e-4 -5.87753,4.27061 2.24481,6.90973 L 165,145.82 l -5.87785,4.27017 2.24481,-6.90973 -5.87753,-4.27061 7.26523,-2.7e-4 z"
       inkscape:transform-center-y="-0.95491508" />
    <path
       sodipodi:type="star"
       style="fill:#ffff00;fill-opacity:1"
       id="use859"
       sodipodi:sides="5"
       sodipodi:cx="105"
       sodipodi:cy="142"
       sodipodi:r1="10"
       sodipodi:r2="3.8199999"
       sodipodi:arg1="-1.5707963"
       sodipodi:arg2="-0.9424778"
       inkscape:flatsided="false"
       inkscape:rounded="0"
       inkscape:randomized="0"
       d="m 105,132 2.24534,6.90956 7.26523,2.7e-4 -5.87753,4.27061 2.24481,6.90973 L 105,145.82 l -5.877853,4.27017 2.244813,-6.90973 -5.877525,-4.27061 7.265225,-2.7e-4 z"
       inkscape:transform-center-y="-0.95491508" />
    <path
       sodipodi:type="star"
       style="fill:#ffff00;fill-opacity:1"
       id="use861"
       sodipodi:sides="5"
       sodipodi:cx="105"
       sodipodi:cy="38"
       sodipodi:r1="10"
       sodipodi:r2="3.8199999"
       sodipodi:arg1="-1.5707963"
       sodipodi:arg2="-0.9424778"
       inkscape:flatsided="false"
       inkscape:rounded="0"
       inkscape:randomized="0"
       d="m 105,28 2.24534,6.909555 7.26523,2.75e-4 -5.87753,4.270615 2.24481,6.909725 L 105,41.82 l -5.877853,4.27017 2.244813,-6.909725 -5.877525,-4.270615 7.265225,-2.75e-4 z"
       inkscape:transform-center-y="-0.95491508" />
    <path
       sodipodi:type="star"
       style="fill:#ffff00;fill-opacity:1"
       id="use863"
       sodipodi:sides="5"
       sodipodi:cx="83"
       sodipodi:cy="60"
       sodipodi:r1="10"
       sodipodi:r2="3.8199999"
       sodipodi:arg1="-1.5707963"
       sodipodi:arg2="-0.9424778"
       inkscape:flatsided="false"
       inkscape:rounded="0"
       inkscape:randomized="0"
       d="m 83,50 2.24534,6.909555 7.265225,2.75e-4 -5.877529,4.270615 2.244816,6.909725 L 83,63.82 l -5.877853,4.27017 2.244817,-6.909725 -5.877529,-4.270615 7.265225,-2.75e-4 z"
       inkscape:transform-center-y="-0.95491508" />
    <path
       sodipodi:type="star"
       style="fill:#ffff00;fill-opacity:1"
       id="use865"
       sodipodi:sides="5"
       sodipodi:cx="83"
       sodipodi:cy="120"
       sodipodi:r1="10"
       sodipodi:r2="3.8199999"
       sodipodi:arg1="-1.5707963"
       sodipodi:arg2="-0.9424778"
       inkscape:flatsided="false"
       inkscape:rounded="0"
       inkscape:randomized="0"
       d="m 83,110 2.24534,6.90956 7.265225,2.7e-4 -5.877529,4.27061 2.244816,6.90973 L 83,123.82 l -5.877853,4.27017 2.244817,-6.90973 -5.877529,-4.27061 7.265225,-2.7e-4 z"
       inkscape:transform-center-y="-0.95491508" />
    <path
       sodipodi:type="star"
       style="fill:#ffff00;fill-opacity:1"
       id="use867"
       sodipodi:sides="5"
       sodipodi:cx="165"
       sodipodi:cy="38"
       sodipodi:r1="10"
       sodipodi:r2="3.8199999"
       sodipodi:arg1="-1.5707963"
       sodipodi:arg2="-0.9424778"
       inkscape:flatsided="false"
       inkscape:rounded="0"
       inkscape:randomized="0"
       d="m 165,28 2.24534,6.909555 7.26523,2.75e-4 -5.87753,4.270615 2.24481,6.909725 L 165,41.82 l -5.87785,4.27017 2.24481,-6.909725 -5.87753,-4.270615 7.26523,-2.75e-4 z"
       inkscape:transform-center-y="-0.95491508" />
    <path
       sodipodi:type="star"
       style="fill:#ffff00;fill-opacity:1"
       id="use869"
       sodipodi:sides="5"
       sodipodi:cx="187"
       sodipodi:cy="60"
       sodipodi:r1="10"
       sodipodi:r2="3.8199999"
       sodipodi:arg1="-1.5707963"
       sodipodi:arg2="-0.9424778"
       inkscape:flatsided="false"
       inkscape:rounded="0"
       inkscape:randomized="0"
       d="m 187,50 2.24534,6.909555 7.26523,2.75e-4 -5.87753,4.270615 2.24481,6.909725 L 187,63.82 l -5.87785,4.27017 2.24481,-6.909725 -5.87753,-4.270615 7.26523,-2.75e-4 z"
       inkscape:transform-center-y="-0.95491508" />
  </g>
</svg>
